<svg width="209" height="75" viewBox="0 0 209 75" fill="none" xmlns="http://www.w3.org/2000/svg">
<path d="M202.891 43.8612C193.264 41.8428 183.175 41.9774 173.548 41.7083C153.695 41.3011 133.844 42.7844 114.123 46.1487C113.609 46.2355 113.127 46.5551 112.745 47.0622C112.363 47.5693 112.1 48.2383 111.994 48.9744C111.816 49.3867 111.691 49.8426 111.624 50.32C110.698 57.9898 110.05 68.4854 115.419 73.0604C118.566 75.7516 122.639 74.9442 126.064 74.6751L142.54 73.7332C163.922 72.5222 185.304 71.4457 206.686 70.2347C206.991 70.239 207.293 70.155 207.575 69.9875C207.857 69.82 208.113 69.5724 208.329 69.2591C208.544 68.9459 208.715 68.5733 208.83 68.1632C208.945 67.7531 209.003 67.3137 209 66.8707C208.63 58.9318 210.111 45.4759 202.891 43.8612Z" fill="#3182CE"/>
<path d="M87.34 34.324C94.396 34.324 97.528 31.228 97.528 26.728C97.528 22.12 94.288 20.068 89.608 19.096L86.188 18.376C83.74 17.836 82.948 16.9 82.948 15.604C82.948 14.056 84.28 12.904 87.304 12.904C90.544 12.904 91.948 14.524 92.092 16.468H97.096C97.06 11.752 93.028 8.476 87.376 8.476C81.544 8.476 77.872 11.356 77.872 15.604C77.872 20.176 80.968 22.012 85.324 22.948L88.996 23.74C91.372 24.244 92.452 25.144 92.452 26.836C92.452 28.744 90.94 29.932 87.34 29.932C84.244 29.932 82.264 28.528 82.048 25.684H77.044C77.296 30.904 80.788 34.324 87.34 34.324ZM100.942 34H105.766V23.668C105.766 20.968 107.458 19.348 109.726 19.348C112.138 19.348 113.218 20.752 113.218 23.092V34H118.042V21.724C118.042 17.548 115.342 14.956 111.202 14.956C108.646 14.956 106.954 16 105.91 17.404H105.766V7.36H100.942V34ZM133.806 15.28V25.972C133.806 28.348 132.798 29.824 130.35 29.824C127.866 29.824 126.858 28.348 126.858 25.972V15.28H122.034V26.728C122.034 30.76 124.626 34.324 130.314 34.324H130.35C136.002 34.324 138.63 30.76 138.63 26.728V15.28H133.806ZM144.862 34H149.686V19.348H154.15V15.28H149.686V13.696C149.686 11.896 150.73 11.14 152.53 11.14C153.106 11.14 153.754 11.212 154.33 11.32V7.252C153.682 7.108 152.962 7 152.026 7C147.958 7 144.862 9.484 144.862 13.696V15.28H141.586V19.348H144.862V34ZM159.698 34H164.522V19.348H168.986V15.28H164.522V13.696C164.522 11.896 165.566 11.14 167.366 11.14C167.942 11.14 168.59 11.212 169.166 11.32V7.252C168.518 7.108 167.798 7 166.862 7C162.794 7 159.698 9.484 159.698 13.696V15.28H156.422V19.348H159.698V34ZM172.626 34H177.45V7.36H172.626V34ZM189.512 34.324C194.336 34.324 197.396 31.552 197.9 28.168H193.184C192.824 29.32 191.672 30.328 189.512 30.328C186.74 30.328 185.444 28.528 185.408 25.972H198.152V24.1C198.152 18.988 195.02 14.956 189.44 14.956C183.428 14.956 180.476 19.348 180.476 24.676C180.476 30.076 183.716 34.324 189.512 34.324ZM185.444 22.768C185.552 20.644 186.74 18.988 189.44 18.988C191.96 18.988 193.148 20.644 193.22 22.768H185.444Z" fill="#0D172A"/>
<path d="M25.7817 32.67L7.02439 43.4985V18.9417L25.7817 8.11098L51.5634 22.9961V14.8851L25.7817 0L0 14.8851V55.6661L25.7817 40.781L37.5168 47.5573V39.4464L25.7817 32.67Z" fill="#3182CE"/>
<path d="M25.7817 16.3336L14.0312 23.1188V31.2297L25.7817 24.4446L44.539 35.2754V59.8344L25.7817 49.0037L14.0312 55.7866L8.10878 59.2022L0.00439024 63.8822L0 71.9998L25.7817 57.1146L51.5634 71.9998V31.2188L25.7817 16.3336Z" fill="#3182CE"/>
<path d="M78.928 68V57.416H76.744V55.736H78.928V53.6C78.928 52.528 79.248 51.664 79.888 51.008C80.544 50.336 81.416 50 82.504 50C83.032 50 83.544 50.056 84.04 50.168V51.848C83.64 51.768 83.24 51.728 82.84 51.728C82.232 51.728 81.76 51.896 81.424 52.232C81.104 52.552 80.944 53.008 80.944 53.6V55.736H83.92V57.416H80.944V68H78.928ZM91.3924 68.216C89.5524 68.216 88.1684 67.632 87.2404 66.464C86.3124 65.28 85.8484 63.752 85.8484 61.88C85.8484 60.008 86.3204 58.48 87.2644 57.296C88.2084 56.112 89.5844 55.52 91.3924 55.52C93.2004 55.52 94.5764 56.112 95.5204 57.296C96.4644 58.48 96.9364 60.008 96.9364 61.88C96.9364 63.752 96.4644 65.28 95.5204 66.464C94.5924 67.632 93.2164 68.216 91.3924 68.216ZM91.3924 66.416C92.5924 66.416 93.4724 66.008 94.0324 65.192C94.6084 64.376 94.8964 63.272 94.8964 61.88C94.8964 60.488 94.6084 59.384 94.0324 58.568C93.4724 57.736 92.5924 57.32 91.3924 57.32C90.2084 57.32 89.3284 57.736 88.7524 58.568C88.1764 59.384 87.8884 60.488 87.8884 61.88C87.8884 63.272 88.1764 64.376 88.7524 65.192C89.3284 66.008 90.2084 66.416 91.3924 66.416ZM100.285 68V55.736H102.037L102.205 57.8H102.301C102.557 57.112 102.973 56.576 103.549 56.192C104.125 55.792 104.789 55.592 105.541 55.592H106.645V57.536H105.685C103.429 57.536 102.301 59.04 102.301 62.048V68H100.285Z" fill="#0D172A"/>
<path d="M119.792 68V54.176H114.848V51.2H128.048V54.176H123.104V68H119.792ZM132.277 68.216C130.917 68.216 129.845 67.856 129.061 67.136C128.293 66.4 127.909 65.464 127.909 64.328C127.909 63.144 128.325 62.208 129.157 61.52C130.005 60.816 131.269 60.464 132.949 60.464C134.037 60.464 134.965 60.592 135.733 60.848V59.768C135.733 59.224 135.557 58.784 135.205 58.448C134.853 58.112 134.309 57.944 133.573 57.944C132.917 57.944 132.405 58.096 132.037 58.4C131.669 58.704 131.485 59.088 131.485 59.552H128.461C128.461 58.32 128.909 57.304 129.805 56.504C130.717 55.704 131.997 55.304 133.645 55.304C135.293 55.304 136.589 55.72 137.533 56.552C138.477 57.368 138.949 58.432 138.949 59.744V68H136.093L135.853 66.704H135.757C134.989 67.712 133.829 68.216 132.277 68.216ZM133.045 65.672C133.861 65.672 134.509 65.448 134.989 65C135.485 64.552 135.733 64.008 135.733 63.368V63.104C135.029 62.832 134.205 62.696 133.261 62.696C132.573 62.696 132.037 62.832 131.653 63.104C131.285 63.376 131.101 63.736 131.101 64.184C131.101 64.632 131.269 64.992 131.605 65.264C131.941 65.536 132.421 65.672 133.045 65.672ZM143.268 53.96C142.612 53.96 142.116 53.792 141.78 53.456C141.444 53.104 141.276 52.616 141.276 51.992C141.276 51.4 141.444 50.936 141.78 50.6C142.116 50.248 142.612 50.072 143.268 50.072C143.892 50.072 144.38 50.248 144.732 50.6C145.084 50.936 145.26 51.4 145.26 51.992C145.26 52.616 145.084 53.104 144.732 53.456C144.38 53.792 143.892 53.96 143.268 53.96ZM141.636 68V55.52H144.852V68H141.636ZM147.566 68V50.24H150.782V68H147.566ZM155.535 68L152.343 55.76V55.52H155.535L157.575 64.4H157.671L159.687 55.52H163.815L165.831 64.4H165.927L167.991 55.52H171.135V55.76L167.967 68H163.887L161.823 59.144H161.727L159.615 68H155.535ZM174.534 53.96C173.878 53.96 173.382 53.792 173.046 53.456C172.71 53.104 172.542 52.616 172.542 51.992C172.542 51.4 172.71 50.936 173.046 50.6C173.382 50.248 173.878 50.072 174.534 50.072C175.158 50.072 175.646 50.248 175.998 50.6C176.35 50.936 176.526 51.4 176.526 51.992C176.526 52.616 176.35 53.104 175.998 53.456C175.646 53.792 175.158 53.96 174.534 53.96ZM172.902 68V55.52H176.118V68H172.902ZM178.831 68V55.52H181.711L181.951 56.936H182.047C182.863 55.848 184.047 55.304 185.599 55.304C186.991 55.304 188.095 55.712 188.911 56.528C189.727 57.328 190.135 58.424 190.135 59.816V68H186.919V60.728C186.919 59.064 186.151 58.232 184.615 58.232C183.847 58.232 183.223 58.488 182.743 59C182.279 59.512 182.047 60.208 182.047 61.088V68H178.831ZM197.287 68.216C195.703 68.216 194.447 67.624 193.519 66.44C192.607 65.256 192.151 63.696 192.151 61.76C192.151 59.856 192.607 58.304 193.519 57.104C194.431 55.904 195.687 55.304 197.287 55.304C198.775 55.304 199.919 55.824 200.719 56.864H200.815V50.24H204.031V68H201.151L200.815 66.656H200.719C199.919 67.696 198.775 68.216 197.287 68.216ZM196.087 64.376C196.535 65.048 197.231 65.384 198.175 65.384C199.119 65.384 199.815 65.048 200.263 64.376C200.711 63.704 200.935 62.832 200.935 61.76C200.935 60.688 200.711 59.816 200.263 59.144C199.831 58.472 199.135 58.136 198.175 58.136C197.215 58.136 196.511 58.472 196.063 59.144C195.631 59.8 195.415 60.672 195.415 61.76C195.415 62.832 195.639 63.704 196.087 64.376Z" fill="white"/>
</svg>
